<svg width="631" height="388" viewBox="0 0 631 388" fill="none" xmlns="http://www.w3.org/2000/svg">
<g filter="url(#filter0_dd_11_75)">
<path d="M248 252C248 282.17 248 297.255 238.627 306.627C229.255 316 214.17 316 184 316H78C61.4315 316 48 302.569 48 286C48 269.431 61.4315 256 78 256H124C154.17 256 169.255 256 178.627 246.627C188 237.255 188 222.17 188 192V88C188 57.8301 188 42.7452 197.373 33.3726C206.745 24 221.83 24 252 24H338C354.569 24 368 37.4315 368 54C368 70.5685 354.569 84 338 84H308C281.7 84 268.55 84 259.699 91.2637C258.079 92.5934 256.593 94.0791 255.264 95.6994C248 104.55 248 117.7 248 144V252Z" fill="url(#paint0_linear_11_75)"/>
</g>
<path d="M558.99 308C558.99 312.418 555.408 316 550.99 316H534.99C530.572 316 526.99 312.418 526.99 308V204C526.99 192.686 526.99 187.029 523.475 183.515C519.96 180 514.304 180 502.99 180H494.99C483.676 180 478.019 180 474.505 183.515C470.99 187.029 470.99 192.686 470.99 204V308C470.99 312.418 467.408 316 462.99 316H446.99C442.572 316 438.99 312.418 438.99 308V204C438.99 192.686 438.99 187.029 435.475 183.515C431.96 180 426.304 180 414.99 180H406.99C395.676 180 390.019 180 386.505 183.515C382.99 187.029 382.99 192.686 382.99 204V308C382.99 312.418 379.408 316 374.99 316H358.99C354.572 316 350.99 312.418 350.99 308V200C350.99 192.523 350.99 188.785 349.382 186C348.329 184.176 346.814 182.661 344.99 181.608C342.205 180 338.467 180 330.99 180H326.99C323.27 180 321.41 180 319.884 179.591C315.743 178.482 312.508 175.247 311.399 171.106C310.99 169.58 310.99 167.72 310.99 164C310.99 160.28 310.99 158.42 311.399 156.894C312.508 152.753 315.743 149.518 319.884 148.409C321.41 148 323.27 148 326.99 148H330.99C338.467 148 342.205 148 344.99 146.392C346.814 145.339 348.329 143.824 349.382 142C350.99 139.215 350.99 135.477 350.99 128V122C350.99 118.28 350.99 116.42 351.399 114.894C352.508 110.753 355.743 107.518 359.884 106.409C361.41 106 363.27 106 366.99 106C370.71 106 372.57 106 374.096 106.409C378.237 107.518 381.471 110.753 382.581 114.894C382.99 116.42 382.99 118.28 382.99 122V127C382.99 135.427 382.99 139.64 385.012 142.667C385.888 143.977 387.013 145.102 388.323 145.978C391.35 148 395.563 148 403.99 148H502.99C514.304 148 519.96 148 523.475 144.485C526.99 140.971 526.99 135.314 526.99 124V92C526.99 88.2801 526.99 86.4202 527.399 84.8942C528.508 80.7531 531.743 77.5185 535.884 76.4089C537.41 76 539.27 76 542.99 76C546.71 76 548.57 76 550.096 76.4089C554.237 77.5185 557.471 80.7531 558.581 84.8942C558.99 86.4202 558.99 88.2801 558.99 92V308ZM630.99 308C630.99 312.418 627.408 316 622.99 316H606.99C602.572 316 598.99 312.418 598.99 308V92C598.99 88.2801 598.99 86.4202 599.399 84.8942C600.508 80.7531 603.743 77.5185 607.884 76.4089C609.41 76 611.27 76 614.99 76C618.71 76 620.57 76 622.096 76.4089C626.237 77.5185 629.471 80.7531 630.581 84.8942C630.99 86.4202 630.99 88.2801 630.99 92V308Z" fill="#1A2530"/>
<rect x="438.99" y="76" width="32" height="31" rx="6" fill="#1A2530"/>
<defs>
<filter id="filter0_dd_11_75" x="0" y="0" width="416" height="388" filterUnits="userSpaceOnUse" color-interpolation-filters="sRGB">
<feFlood flood-opacity="0" result="BackgroundImageFix"/>
<feColorMatrix in="SourceAlpha" type="matrix" values="0 0 0 0 0 0 0 0 0 0 0 0 0 0 0 0 0 0 127 0" result="hardAlpha"/>
<feOffset dy="4"/>
<feGaussianBlur stdDeviation="6"/>
<feComposite in2="hardAlpha" operator="out"/>
<feColorMatrix type="matrix" values="0 0 0 0 0.168627 0 0 0 0 0.352941 0 0 0 0 0.560784 0 0 0 0.04 0"/>
<feBlend mode="normal" in2="BackgroundImageFix" result="effect1_dropShadow_11_75"/>
<feColorMatrix in="SourceAlpha" type="matrix" values="0 0 0 0 0 0 0 0 0 0 0 0 0 0 0 0 0 0 127 0" result="hardAlpha"/>
<feOffset dy="24"/>
<feGaussianBlur stdDeviation="24"/>
<feComposite in2="hardAlpha" operator="out"/>
<feColorMatrix type="matrix" values="0 0 0 0 0.101961 0 0 0 0 0.145098 0 0 0 0 0.188235 0 0 0 0.06 0"/>
<feBlend mode="normal" in2="effect1_dropShadow_11_75" result="effect2_dropShadow_11_75"/>
<feBlend mode="normal" in="SourceGraphic" in2="effect2_dropShadow_11_75" result="shape"/>
</filter>
<linearGradient id="paint0_linear_11_75" x1="208" y1="24" x2="208" y2="316" gradientUnits="userSpaceOnUse">
<stop stop-color="#2B5A8F"/>
<stop offset="0.5" stop-color="#1A2530"/>
<stop offset="1" stop-color="#121A21"/>
</linearGradient>
</defs>
</svg>
